<svg xmlns="http://www.w3.org/2000/svg" version="1.1" xmlns:xlink="http://www.w3.org/1999/xlink" xmlns:svgjs="http://svgjs.dev/svgjs" width="1440" height="560" preserveAspectRatio="none" viewBox="0 0 1440 560"><g mask="url(&quot;#SvgjsMask1049&quot;)" fill="none"><path d="M733.355,433.036C749.208,432.451,763.874,424.42,771.681,410.61C779.368,397.012,778.614,380.39,770.746,366.895C762.938,353.503,748.853,345.216,733.355,344.878C717.226,344.526,701.663,351.572,693.029,365.2C683.748,379.848,680.935,398.725,689.796,413.631C698.502,428.276,716.33,433.664,733.355,433.036" fill="rgba(88, 117, 147, 0.4)" class="triangle-float1"></path><path d="M650.945,187.586C674.287,188.156,689.994,165.581,700.126,144.545C708.797,126.542,707.959,106.292,698.603,88.635C688.52,69.606,672.439,53.051,650.945,51.728C627.276,50.271,602.501,60.85,591.909,82.067C582.055,101.804,594.987,122.988,605.758,142.24C616.925,162.2,628.081,187.027,650.945,187.586" fill="rgba(88, 117, 147, 0.4)" class="triangle-float2"></path><path d="M53.135,244.916C82.749,246.248,112.38,233.863,127.676,208.47C143.424,182.327,141.822,149.471,126.543,123.051C111.283,96.664,83.558,77.673,53.135,79.571C25.127,81.318,6.984,106.418,-5.958,131.317C-17.671,153.851,-22.349,179.718,-10.629,202.248C2.02,226.565,25.753,243.684,53.135,244.916" fill="rgba(88, 117, 147, 0.4)" class="triangle-float2"></path><path d="M742.675,474.051C785.962,472.107,823.82,445.864,844.128,407.587C863.206,371.629,859.186,328.744,838.309,293.799C818,259.806,782.268,237.141,742.675,237.774C704.088,238.39,673.445,264.561,652.191,296.773C627.81,333.725,603.986,378.034,624.112,417.466C645.449,459.27,695.787,476.156,742.675,474.051" fill="rgba(88, 117, 147, 0.4)" class="triangle-float1"></path><path d="M515.153,521.816C550.819,522.807,584.458,504.644,602.881,474.088C621.925,442.503,624.42,402.94,606.14,370.907C587.709,338.61,552.334,320.94,515.153,320.358C476.854,319.759,437.15,334.198,419.096,367.98C401.791,400.362,416.038,438.292,435.484,469.435C453.526,498.329,481.102,520.87,515.153,521.816" fill="rgba(88, 117, 147, 0.4)" class="triangle-float2"></path><path d="M1093.339,171.291C1131.679,171.256,1162.772,142.446,1180.228,108.31C1196.118,77.238,1190.86,42.051,1175.441,10.743C1157.472,-25.743,1133.893,-65.032,1093.339,-68.119C1048.827,-71.507,1006.061,-43.684,986.302,-3.654C968.295,32.826,984.941,73.767,1006.173,108.469C1026.207,141.213,1054.953,171.326,1093.339,171.291" fill="rgba(88, 117, 147, 0.4)" class="triangle-float1"></path><path d="M429.649,539.265C465.685,539.312,495.909,514.435,513.267,482.855C529.949,452.504,529.384,416.912,513.936,385.914C496.39,350.705,468.932,317.153,429.649,315.06C387.432,312.811,347.033,338.157,328.225,376.02C311.035,410.626,326.017,449.815,346.409,482.636C365.391,513.188,393.681,539.218,429.649,539.265" fill="rgba(88, 117, 147, 0.4)" class="triangle-float3"></path><path d="M1338.339,410.228C1381.65,410.436,1428.435,396.325,1447.459,357.416C1465.142,321.251,1440.348,281.826,1417.238,248.863C1398.393,221.985,1371.107,203.726,1338.339,201.778C1301.357,199.58,1262.455,207.974,1241.329,238.407C1217.203,273.162,1210.216,319.536,1231.017,356.378C1252.108,393.733,1295.441,410.022,1338.339,410.228" fill="rgba(88, 117, 147, 0.4)" class="triangle-float2"></path></g><defs><mask id="SvgjsMask1049"><rect width="1440" height="560" fill="#ffffff"></rect></mask><style>
                @keyframes float1 {
                    0%{transform: translate(0, 0)}
                    50%{transform: translate(-10px, 0)}
                    100%{transform: translate(0, 0)}
                }

                .triangle-float1 {
                    animation: float1 5s infinite;
                }

                @keyframes float2 {
                    0%{transform: translate(0, 0)}
                    50%{transform: translate(-5px, -5px)}
                    100%{transform: translate(0, 0)}
                }

                .triangle-float2 {
                    animation: float2 4s infinite;
                }

                @keyframes float3 {
                    0%{transform: translate(0, 0)}
                    50%{transform: translate(0, -10px)}
                    100%{transform: translate(0, 0)}
                }

                .triangle-float3 {
                    animation: float3 6s infinite;
                }
            </style></defs></svg>